<svg viewBox="0 0 74.94 42.1" xmlns="http://www.w3.org/2000/svg">
    <defs>
    <style>
      .cls-1 {
        fill: #fff;
      }

      .cls-2 {
        fill: #fff;
      }

      .cls-3 {
        fill: #e9571e;
      }
    </style>
  </defs>
  <path class="cls-1" d="M 30.25 13.49 C 30.25 20.33 26.31 26.95 17.03 26.95 L 7.45 26.95 L 7.45 35.36 C 7.45 39.044 4.464 42.03 0.78 42.03 L 0 42.03 L 0 2.88 C 0 1.285 1.295 -0.006 2.89 0 L 17.03 0 C 26.31 0 30.25 6.77 30.25 13.49 M 22.8 13.49 C 22.8 10.19 21.09 6.65 16.8 6.65 L 7.45 6.65 L 7.45 20.27 L 16.67 20.27 C 21.06 20.27 22.83 16.91 22.83 13.49"></path>
  <path class="cls-2" d="M 22.84 39.64 C 23.136 36.965 25.399 34.944 28.09 34.95 C 32.42 34.95 34.09 31.84 34.09 28.11 L 34.09 7.45 C 34.084 3.333 37.423 -0.006 41.54 0 L 41.54 28.1 C 41.54 35.61 37.93 42.1 28.11 42.1 C 26.81 42.036 25.518 41.855 24.25 41.56 C 23.366 41.366 22.768 40.54 22.86 39.64" style="fill: rgb(255, 255, 255);"></path>
  <path class="cls-3" d="M 74.7 21.57 L 52.7 21.57 C 53.49 25.57 56.54 27.57 60.7 27.57 C 62.946 27.609 65.143 26.906 66.95 25.57 C 67.977 24.774 69.412 24.774 70.44 25.57 C 72.087 26.836 72.121 29.308 70.51 30.62 C 67.601 32.847 64.023 34.021 60.36 33.95 C 51.81 33.95 45.36 27.95 45.36 19.05 C 45.36 9.96 52.2 4.22 60.36 4.22 C 68.52 4.22 74.89 9.95 74.89 18.82 C 74.883 19.74 74.819 20.658 74.7 21.57 M 67.8 16.62 C 67.38 12.72 64.39 10.46 60.42 10.46 C 56.45 10.46 53.52 12.29 52.67 16.62 L 67.8 16.62 Z" style="fill: rgb(233, 87, 30);"></path>
</svg>